<svg width="25" height="25" viewBox="0 0 25 25" fill="605F5E" xmlns="http://www.w3.org/2000/svg">
<path d="M7.38636 -0.000488281C3.3125 -0.000488281 0 3.30895 0 7.37905V17.5969C0 21.667 3.3125 24.9764 7.38636 24.9764H17.6136C21.6875 24.9764 25 21.667 25 17.5969V7.37905C25 3.30895 21.6875 -0.000488281 17.6136 -0.000488281H7.38636ZM19.3182 4.54077C19.9432 4.54077 20.4545 5.05166 20.4545 5.67608C20.4545 6.3005 19.9432 6.81139 19.3182 6.81139C18.6932 6.81139 18.1818 6.3005 18.1818 5.67608C18.1818 5.05166 18.6932 4.54077 19.3182 4.54077ZM12.5 6.24374C15.9489 6.24374 18.75 9.04228 18.75 12.488C18.75 15.9336 15.9489 18.7322 12.5 18.7322C9.05114 18.7322 6.25 15.9336 6.25 12.488C6.25 9.04228 9.05114 6.24374 12.5 6.24374ZM12.5 7.37905C9.68182 7.37905 7.38636 9.67238 7.38636 12.488C7.38636 15.3035 9.68182 17.5969 12.5 17.5969C15.3182 17.5969 17.6136 15.3035 17.6136 12.488C17.6136 9.67238 15.3182 7.37905 12.5 7.37905Z" fill="#605F5E"/>
</svg>
