<svg width="25" height="25" viewBox="0 0 25 25" fill="none" xmlns="http://www.w3.org/2000/svg">
<path d="M12.5 -0.000488281C19.4038 -0.000488281 25 5.59054 25 12.488C25 19.3854 19.4038 24.9764 12.5 24.9764C5.5962 24.9764 0 19.3854 0 12.488C0 5.59054 5.5962 -0.000488281 12.5 -0.000488281ZM16.812 17.5784C17.0418 16.8736 18.119 9.84964 18.2522 8.46559C18.2924 8.04642 18.1598 7.76787 17.9 7.64353C17.5859 7.49258 17.1207 7.56805 16.581 7.76244C15.8408 8.02904 6.37772 12.0433 5.83098 12.2757C5.3125 12.4956 4.82228 12.7356 4.82228 13.0831C4.82228 13.3274 4.96739 13.4648 5.36739 13.6076C5.7837 13.7558 6.83207 14.0734 7.45109 14.2439C8.04728 14.4085 8.72609 14.2657 9.10652 14.0295C9.50978 13.7792 14.1636 10.6679 14.4978 10.3953C14.8315 10.1228 15.0978 10.4719 14.825 10.745C14.5522 11.0176 11.3576 14.1153 10.9364 14.5442C10.425 15.0649 10.788 15.6046 11.131 15.8207C11.5228 16.0673 14.3408 17.9557 14.7652 18.2587C15.1897 18.5617 15.6201 18.6991 16.0141 18.6991C16.4082 18.6991 16.6158 18.1805 16.812 17.5784Z" fill="white"/>
</svg>
