<svg width="25" height="25" viewBox="0 0 25 25" fill="none" xmlns="http://www.w3.org/2000/svg">
<path d="M12.5 0C5.60761 0 0 5.60243 0 12.4884C0 19.3745 5.60761 24.9769 12.5 24.9769C19.3929 24.9769 25 19.3745 25 12.4884C25 5.60243 19.3929 0 12.5 0ZM17.9201 14.9508C19.1359 16.0292 19.3886 16.4142 19.4299 16.4799C19.9337 17.278 18.8712 17.3752 18.8712 17.3752H16.6321C16.6321 17.3752 16.087 17.3812 15.6212 17.0728C14.862 16.576 14.0668 15.6127 13.5082 15.78C13.0391 15.9201 13.0435 16.5532 13.0435 17.0945C13.0435 17.2884 12.8766 17.3752 12.5 17.3752C12.1234 17.3752 11.9668 17.3752 11.8 17.3752C10.5734 17.3752 9.24239 16.9626 7.91467 15.5764C6.03641 13.6168 4.38913 9.66932 4.38913 9.66932C4.38913 9.66932 4.29185 9.47059 4.39783 9.3495C4.51793 9.21376 4.84456 9.23113 4.84456 9.23113L7.01576 9.23059C7.01576 9.23059 7.22011 9.26914 7.36685 9.37231C7.48804 9.45701 7.55543 9.61882 7.55543 9.61882C7.55543 9.61882 7.92011 10.8221 8.38478 11.5893C9.29239 13.0868 9.71467 13.1248 10.0228 12.9636C10.4728 12.7301 10.3261 11.1381 10.3261 11.1381C10.3261 11.1381 10.3462 10.4545 10.1114 10.1498C9.93043 9.9142 9.58424 9.78877 9.43315 9.76922C9.31087 9.75348 9.51522 9.53955 9.77554 9.41737C10.1234 9.26263 10.5967 9.22299 11.413 9.23059C12.0484 9.23656 12.2315 9.27457 12.4793 9.33158C13.2288 9.50425 13.0435 9.95981 13.0435 11.5594C13.0435 12.072 12.9728 12.7925 13.3598 13.0314C13.5266 13.1346 14.0984 13.2606 15.1158 11.6099C15.5989 10.8269 15.9832 9.52814 15.9832 9.52814C15.9832 9.52814 16.0625 9.38534 16.1859 9.31475C16.312 9.24254 16.3082 9.24417 16.481 9.24417C16.6538 9.24417 18.387 9.23059 18.7674 9.23059C19.1473 9.23059 19.5038 9.22625 19.5652 9.44887C19.6533 9.76868 19.2848 10.8644 18.3511 12.0535C16.8168 14.005 16.6467 13.8225 17.9201 14.9508Z" fill="white"/>
</svg>
