<?xml version="1.0" encoding="UTF-8"?>
<svg id="_Слой_2" data-name="Слой 2" xmlns="http://www.w3.org/2000/svg" viewBox="0 0 238.51 46.2">
  <defs>
    <style>
      .cls-1 {
        fill: #605f5e;
      }

      .cls-1, .cls-2 {
        fill-rule: evenodd;
      }

      .cls-2 {
        fill: #2a2828;
      }
    </style>
  </defs>
  <g id="_Слой_1-2" data-name="Слой 1">
    <g>
      <path class="cls-2" d="M7.14,17.56c.21,.97,1,1.73,1.99,1.89h26.4c1.97,0,3.58,1.61,3.58,3.58s-1.61,3.58-3.58,3.58H10.21c-1.43,.16-2.59,1.18-2.98,2.52-.18,.64-.15,1.44-.3,2.17-.47,2.25-2,5.25-6.92,5.25v-8.47C-.03,22.69,.03,10.43,.03,4.38,.03,2.41,1.6,.8,3.63,.8H52.9c1.21,0,2.4,.02,3.63,0,.02,5.86-4.39,7.2-7.6,7.2-1.61,0-3.58,0-5.26,0H8.95c-.98,.26-1.71,1.11-1.8,2.15,0,2.47,0,4.94,0,7.41Z"/>
      <path class="cls-1" d="M52.92,45.99H3.64c-1.21,0-2.4-.02-3.63,0-.02-5.86,4.39-7.2,7.6-7.2,1.61,0,3.58,0,5.26,0H47.6c.98-.26,1.71-1.11,1.8-2.15v-.57c0-.26,0-.39,0-.49,0-4.19,0-8.37,0-12.56-.01-1.71,0-3.41,0-5.11,0-.83,.04-1.62,.21-2.43,.47-2.25,2-5.25,6.92-5.25v8.47c.04,5.4-.01,17.66-.01,23.71,0,1.97-1.57,3.58-3.6,3.58Z"/>
    </g>
    <path class="cls-1" d="M74.13,39.45v6.58h-.92v-6.58h.92Zm20.39,0l3.44,5.26h.02v-5.26h.92v6.58h-1.16l-3.48-5.37h-.02v5.37h-.92v-6.58h1.2Zm25.87,.81v5.77h-.92v-5.77h-2.11v-.81h5.14v.81h-2.11Zm21.5,2.76v2.19h3.44v.82h-4.36v-6.58h4.22v.81h-3.3v1.97h3.1v.79h-3.1Zm23.18,.08v2.93h-.92v-6.58h2.11c.69,0,1.26,.15,1.69,.44s.65,.75,.65,1.38c0,.47-.15,.86-.44,1.16-.29,.3-.68,.5-1.16,.58l1.84,3.02h-1.12l-1.67-2.93h-.98Zm0-2.87v2.1h1.06c1.03,0,1.54-.35,1.54-1.06s-.49-1.04-1.48-1.04h-1.12Zm23.3-.78v6.58h-.92v-6.58h.92Zm25.83,3.28c0,1.01-.33,1.84-.99,2.49-.66,.65-1.49,.98-2.5,.98s-1.83-.33-2.49-.98c-.66-.65-.99-1.48-.99-2.49s.33-1.84,.98-2.49c.65-.64,1.49-.96,2.5-.96s1.84,.32,2.5,.96c.66,.64,.99,1.47,.99,2.49h0Zm-.99,0c0-.74-.23-1.37-.69-1.88-.46-.51-1.06-.76-1.81-.76s-1.34,.25-1.79,.76c-.46,.51-.69,1.13-.69,1.88s.23,1.38,.69,1.88c.46,.5,1.06,.76,1.79,.76s1.35-.25,1.81-.76c.46-.5,.69-1.13,.69-1.88h0Zm20.76,.37v2.93h-.92v-6.58h2.11c.69,0,1.26,.15,1.69,.44s.65,.75,.65,1.38c0,.47-.15,.86-.44,1.16-.29,.3-.68,.5-1.16,.58l1.84,3.02h-1.12l-1.67-2.93h-.98Zm0-2.87v2.1h1.06c1.03,0,1.54-.35,1.54-1.06s-.49-1.04-1.48-1.04h-1.12Z"/>
    <g>
      <path class="cls-2" d="M133.16,16.2v12.32h-3.87V.83h8.88c2.92,0,5.29,.61,7.12,1.84,1.83,1.23,2.74,3.17,2.74,5.83,0,1.98-.61,3.61-1.84,4.89-1.23,1.28-2.85,2.09-4.89,2.43l7.74,12.71h-4.69l-7.04-12.32h-4.15Zm0-12.09V12.95h4.46c4.33,0,6.49-1.49,6.49-4.46s-2.07-4.38-6.22-4.38h-4.73Zm29.08-3.29l8.29,21.28h.08L178.78,.83h6.02V28.52h-3.87V5.36h-.08l-9.19,23.15h-2.46l-9.15-23.15h-.08V28.52h-3.75V.83h6.02Z"/>
      <polygon class="cls-2" points="77.09 16.17 77.09 28.53 73.22 28.53 73.22 .83 90.51 .83 90.51 4.24 77.09 4.24 77.09 12.84 89.64 12.84 89.64 16.17 77.09 16.17"/>
      <path class="cls-2" d="M124.02,14.51c0,4.25-1.39,7.74-4.17,10.48-2.78,2.74-6.29,4.11-10.54,4.11s-7.72-1.37-10.48-4.11-4.15-6.23-4.15-10.48,1.38-7.76,4.13-10.46c2.75-2.7,6.25-4.05,10.5-4.05s7.76,1.35,10.54,4.05c2.78,2.7,4.17,6.19,4.17,10.46h0Zm-4.19,0c0-3.13-.96-5.76-2.89-7.9-1.93-2.14-4.47-3.21-7.63-3.21s-5.62,1.07-7.55,3.21c-1.93,2.14-2.89,4.77-2.89,7.9s.96,5.8,2.89,7.92c1.93,2.13,4.45,3.19,7.55,3.19s5.7-1.06,7.63-3.19c1.93-2.13,2.89-4.77,2.89-7.92Z"/>
    </g>
    <path class="cls-2" d="M196.6,21.71l-2.78,6.81h-4.3L201.53,.83h3.52l11.89,27.69h-4.38l-2.82-6.81h-13.14Zm6.57-16.39l-5.2,12.99h10.36l-5.16-12.99Z"/>
    <path class="cls-2" d="M215.79,28.5l.02,.04h-.02v-.04h0Zm13.84-24.25V28.53h-3.87V4.24h-8.88V.84h21.63v3.4h-8.88Z"/>
  </g>
</svg>