<?xml version="1.0" encoding="UTF-8"?>
<svg id="_Слой_2" data-name="Слой 2" xmlns="http://www.w3.org/2000/svg" viewBox="0 0 213.25 134.29">
  <defs>
    <style>
      .cls-1 {
        fill: #fff;
        fill-rule: evenodd;
      }
    </style>
  </defs>
  <g id="_Слой_1-2" data-name="Слой 1">
    <g>
      <g>
        <path class="cls-1" d="M82.52,19.13c.24,1.11,1.14,1.97,2.27,2.16h30.12c2.25,0,4.09,1.84,4.09,4.09s-1.84,4.09-4.09,4.09h-28.88c-1.63,.19-2.96,1.35-3.4,2.88-.21,.73-.17,1.65-.34,2.48-.53,2.57-2.28,5.99-7.9,5.99v-9.67c-.05-6.16,.02-20.16,.02-27.05,0-2.24,1.79-4.09,4.11-4.09h56.22c1.38,0,2.74,.02,4.14,0,.02,6.69-5,8.21-8.68,8.22-1.84,0-4.08,0-6,0h-39.62c-1.11,.3-1.95,1.27-2.06,2.45,0,2.82,0,5.64,0,8.45Z"/>
        <path class="cls-1" d="M134.75,51.57h-56.22c-1.38,0-2.74-.02-4.14,0-.02-6.69,5-8.21,8.68-8.22,1.84,0,4.08,0,6,0h39.62c1.11-.3,1.95-1.27,2.06-2.45v-.65c0-.3,0-.44,0-.56,0-4.78,0-9.55,0-14.33-.01-1.95,0-3.89,0-5.83,0-.95,.05-1.85,.24-2.78,.53-2.57,2.28-5.99,7.9-5.99v9.67c.05,6.16-.02,20.16-.02,27.05,0,2.24-1.79,4.09-4.11,4.09Z"/>
      </g>
      <g>
        <path class="cls-1" d="M1.19,125.57v8.5H0v-8.5H1.19Zm26.35,0l4.44,6.8h.02v-6.8h1.19v8.5h-1.5l-4.49-6.94h-.02v6.94h-1.19v-8.5h1.55Zm33.44,1.05v7.46h-1.19v-7.46h-2.73v-1.05h6.64v1.05h-2.73Zm27.78,3.57v2.83h4.44v1.06h-5.63v-8.5h5.45v1.05h-4.26v2.55h4.01v1.02h-4.01Zm29.96,.11v3.78h-1.19v-8.5h2.73c.9,0,1.63,.19,2.19,.56,.56,.38,.84,.97,.84,1.79,0,.61-.19,1.11-.56,1.5-.38,.39-.88,.64-1.5,.74l2.38,3.9h-1.44l-2.16-3.78h-1.27Zm0-3.71v2.71h1.37c1.33,0,1.99-.46,1.99-1.37s-.64-1.35-1.91-1.35h-1.45Zm30.11-1.01v8.5h-1.19v-8.5h1.19Zm33.38,4.24c0,1.31-.43,2.38-1.28,3.22-.85,.84-1.93,1.26-3.24,1.26s-2.37-.42-3.22-1.26c-.85-.84-1.27-1.91-1.27-3.22s.42-2.38,1.27-3.21c.84-.83,1.92-1.24,3.22-1.24s2.38,.41,3.24,1.24c.85,.83,1.28,1.9,1.28,3.21h0Zm-1.29,0c0-.96-.3-1.77-.89-2.43-.59-.66-1.37-.98-2.34-.98s-1.73,.33-2.32,.98c-.59,.66-.89,1.47-.89,2.43s.3,1.78,.89,2.43c.59,.65,1.37,.98,2.32,.98s1.75-.33,2.34-.98c.59-.65,.89-1.46,.89-2.43h0Zm26.83,.48v3.78h-1.19v-8.5h2.73c.9,0,1.63,.19,2.19,.56,.56,.38,.84,.97,.84,1.79,0,.61-.19,1.11-.56,1.5-.38,.39-.88,.64-1.5,.74l2.38,3.9h-1.44l-2.16-3.78h-1.27Zm0-3.71v2.71h1.37c1.33,0,1.99-.46,1.99-1.37s-.64-1.35-1.91-1.35h-1.45Z"/>
        <g>
          <g>
            <path class="cls-1" d="M77.49,95.51v15.93h-5.01v-35.8h11.48c3.77,0,6.84,.79,9.2,2.38,2.36,1.58,3.54,4.09,3.54,7.53,0,2.56-.79,4.67-2.38,6.32-1.58,1.65-3.69,2.7-6.32,3.13l10.01,16.43h-6.07l-9.1-15.93h-5.36Zm0-15.62v11.43h5.76c5.6,0,8.39-1.92,8.39-5.76s-2.68-5.66-8.04-5.66h-6.12Zm37.58-4.25l10.72,27.5h.1l10.57-27.5h7.79v35.8h-5.01v-29.93h-.1l-11.88,29.93h-3.19l-11.83-29.93h-.1v29.93h-4.85v-35.8h7.79Z"/>
            <polygon class="cls-1" points="5.02 95.47 5.02 111.44 .01 111.44 .01 75.65 22.36 75.65 22.36 80.05 5.02 80.05 5.02 91.17 21.25 91.17 21.25 95.47 5.02 95.47"/>
            <path class="cls-1" d="M65.68,93.33c0,5.49-1.8,10.01-5.38,13.55-3.59,3.54-8.13,5.31-13.63,5.31s-9.98-1.77-13.55-5.31c-3.57-3.54-5.36-8.06-5.36-13.55s1.78-10.04,5.33-13.52c3.56-3.49,8.08-5.23,13.57-5.23s10.04,1.74,13.63,5.23c3.59,3.49,5.38,8,5.38,13.52h0Zm-5.41,0c0-4.04-1.25-7.45-3.74-10.21-2.49-2.76-5.78-4.15-9.86-4.15s-7.26,1.38-9.76,4.15c-2.49,2.76-3.74,6.17-3.74,10.21s1.25,7.49,3.74,10.24c2.49,2.75,5.75,4.12,9.76,4.12s7.36-1.37,9.86-4.12c2.49-2.75,3.74-6.16,3.74-10.24Z"/>
          </g>
          <path class="cls-1" d="M159.5,102.64l-3.59,8.8h-5.56l15.52-35.8h4.55l15.37,35.8h-5.66l-3.64-8.8h-16.99Zm8.49-21.18l-6.72,16.79h13.4l-6.67-16.79Z"/>
          <path class="cls-1" d="M183.89,111.39l.02,.05h-.02v-.05h0Zm17.89-31.35v31.4h-5.01v-31.4h-11.48v-4.4h27.96v4.4h-11.48Z"/>
        </g>
      </g>
    </g>
  </g>
</svg>