<?xml version="1.0" encoding="UTF-8"?>
<svg id="_Слой_2" data-name="Слой 2" xmlns="http://www.w3.org/2000/svg" viewBox="0 0 103.11 82.41">
  <defs>
    <style>
      .cls-1 {
        fill: #605f5e;
      }

      .cls-1, .cls-2 {
        fill-rule: evenodd;
      }

      .cls-2 {
        fill: #2a2828;
      }
    </style>
  </defs>
  <g id="_Слой_1-2" data-name="Слой 1">
    <g>
      <path class="cls-2" d="M13.03,30.57c.39,1.77,1.82,3.15,3.62,3.45h48.13c3.59,0,6.53,2.94,6.53,6.53s-2.94,6.53-6.53,6.53H18.63c-2.6,.3-4.73,2.15-5.44,4.6-.34,1.17-.26,2.63-.54,3.96-.85,4.11-3.64,9.57-12.62,9.57v-15.45C-.05,39.91,.05,17.55,.05,6.53,.05,2.94,2.92,0,6.62,0H96.46c2.21,0,4.38,.04,6.62,0,.04,10.69-8,13.12-13.86,13.14-2.94,0-6.52,0-9.59,0H16.32c-1.78,.48-3.12,2.03-3.29,3.92,0,4.5,0,9.01,0,13.51Z"/>
      <path class="cls-1" d="M96.49,82.41H6.64c-2.21,0-4.38-.04-6.62,0-.04-10.69,8-13.12,13.86-13.14,2.94,0,6.52,0,9.59,0h63.31c1.78-.48,3.12-2.03,3.29-3.92v-1.04c0-.47,0-.7,0-.89,0-7.63,0-15.26,0-22.9-.02-3.12,0-6.22,0-9.32,0-1.52,.07-2.96,.38-4.44,.85-4.11,3.64-9.57,12.62-9.57v15.45c.08,9.85-.03,32.21-.03,43.23,0,3.59-2.86,6.53-6.57,6.53Z"/>
    </g>
  </g>
</svg>